<mxfile host="app.diagrams.net" agent="Mozilla/5.0 (Windows NT 10.0; Win64; x64) AppleWebKit/537.36 (KHTML, like Gecko) Chrome/138.0.0.0 Safari/537.36" version="28.0.7">
  <diagram name="Página-1" id="fYXppVwYqPxIEAhIgafm">
    <mxGraphModel grid="1" page="1" gridSize="10" guides="1" tooltips="1" connect="1" arrows="1" fold="1" pageScale="1" pageWidth="827" pageHeight="1169" math="0" shadow="0">
      <root>
        <mxCell id="0" />
        <mxCell id="1" parent="0" />
        <mxCell id="SB9lvJocPj3npPwkDB7g-47" value="" style="endArrow=none;html=1;rounded=0;strokeColor=default;align=center;verticalAlign=middle;fontFamily=Helvetica;fontSize=11;fontColor=default;labelBackgroundColor=default;entryX=0.5;entryY=0;entryDx=0;entryDy=0;" edge="1" parent="1" target="SB9lvJocPj3npPwkDB7g-45">
          <mxGeometry width="50" height="50" relative="1" as="geometry">
            <mxPoint x="48" y="-727" as="sourcePoint" />
            <mxPoint x="190" y="-550" as="targetPoint" />
          </mxGeometry>
        </mxCell>
        <mxCell id="SB9lvJocPj3npPwkDB7g-72" value="&lt;blockquote style=&quot;margin: 0 0 0 40px; border: none; padding: 0px;&quot;&gt;&lt;br&gt;&lt;/blockquote&gt;" style="rounded=0;whiteSpace=wrap;html=1;align=left;" vertex="1" parent="1">
          <mxGeometry x="656" y="-345" width="160" height="180" as="geometry" />
        </mxCell>
        <mxCell id="SB9lvJocPj3npPwkDB7g-71" value="&lt;blockquote style=&quot;margin: 0 0 0 40px; border: none; padding: 0px;&quot;&gt;&lt;br&gt;&lt;/blockquote&gt;" style="rounded=0;whiteSpace=wrap;html=1;align=left;" vertex="1" parent="1">
          <mxGeometry x="340" y="-565" width="290" height="210" as="geometry" />
        </mxCell>
        <mxCell id="SB9lvJocPj3npPwkDB7g-51" value="" style="rounded=0;whiteSpace=wrap;html=1;" vertex="1" parent="1">
          <mxGeometry y="-415" width="190" height="150" as="geometry" />
        </mxCell>
        <mxCell id="SB9lvJocPj3npPwkDB7g-9" value="" style="rounded=0;whiteSpace=wrap;html=1;" vertex="1" parent="1">
          <mxGeometry x="630" y="-835" width="190" height="150" as="geometry" />
        </mxCell>
        <mxCell id="SB9lvJocPj3npPwkDB7g-5" value="" style="rounded=0;whiteSpace=wrap;html=1;" vertex="1" parent="1">
          <mxGeometry x="10" y="-1160" width="190" height="150" as="geometry" />
        </mxCell>
        <mxCell id="f695u6qmlx_kz472ul5v-42" value="" style="rounded=0;whiteSpace=wrap;html=1;" vertex="1" parent="1">
          <mxGeometry x="320" y="-1150" width="190" height="150" as="geometry" />
        </mxCell>
        <mxCell id="f695u6qmlx_kz472ul5v-1" value="&lt;blockquote style=&quot;margin: 0 0 0 40px; border: none; padding: 0px;&quot;&gt;&lt;b&gt;USUÁRIO&lt;/b&gt;&lt;div&gt;&lt;span style=&quot;background-color: transparent; color: light-dark(rgb(0, 0, 0), rgb(255, 255, 255));&quot;&gt;&lt;br&gt;&lt;/span&gt;&lt;/div&gt;&lt;div&gt;&lt;span style=&quot;background-color: transparent; color: light-dark(rgb(0, 0, 0), rgb(255, 255, 255));&quot;&gt;id_usuario (PK)&lt;/span&gt;&lt;/div&gt;&lt;div&gt;&lt;div&gt;&lt;span style=&quot;background-color: transparent; color: light-dark(rgb(0, 0, 0), rgb(255, 255, 255));&quot;&gt;id_empresa (FK)&lt;/span&gt;&lt;/div&gt;&lt;div&gt;&lt;span style=&quot;background-color: transparent; color: light-dark(rgb(0, 0, 0), rgb(255, 255, 255));&quot;&gt;id_cargo (FK)&lt;/span&gt;&lt;/div&gt;&lt;/div&gt;&lt;div&gt;&lt;span style=&quot;background-color: transparent; color: light-dark(rgb(0, 0, 0), rgb(255, 255, 255));&quot;&gt;nome&lt;/span&gt;&lt;/div&gt;&lt;div&gt;&lt;span style=&quot;background-color: transparent; color: light-dark(rgb(0, 0, 0), rgb(255, 255, 255));&quot;&gt;email&lt;/span&gt;&lt;/div&gt;&lt;div&gt;&lt;span style=&quot;background-color: transparent; color: light-dark(rgb(0, 0, 0), rgb(255, 255, 255));&quot;&gt;senha_hash&lt;/span&gt;&lt;/div&gt;&lt;div&gt;&lt;span style=&quot;background-color: transparent; color: light-dark(rgb(0, 0, 0), rgb(255, 255, 255));&quot;&gt;telefone&lt;/span&gt;&lt;/div&gt;&lt;div&gt;&lt;span style=&quot;background-color: transparent; color: light-dark(rgb(0, 0, 0), rgb(255, 255, 255));&quot;&gt;avatar_url&lt;/span&gt;&lt;/div&gt;&lt;div&gt;&lt;span style=&quot;background-color: transparent; color: light-dark(rgb(0, 0, 0), rgb(255, 255, 255));&quot;&gt;data_criacao&lt;/span&gt;&lt;/div&gt;&lt;/blockquote&gt;" style="rounded=0;whiteSpace=wrap;html=1;align=left;" vertex="1" parent="1">
          <mxGeometry x="270" y="-340" width="170" height="200" as="geometry" />
        </mxCell>
        <mxCell id="f695u6qmlx_kz472ul5v-3" value="&lt;blockquote style=&quot;margin: 0 0 0 40px; border: none; padding: 0px;&quot;&gt;&lt;b&gt;EMPRESA&lt;/b&gt;&lt;div&gt;&lt;span style=&quot;background-color: transparent; color: light-dark(rgb(0, 0, 0), rgb(255, 255, 255));&quot;&gt;&lt;br&gt;&lt;/span&gt;&lt;/div&gt;&lt;div&gt;&lt;span style=&quot;background-color: transparent; color: light-dark(rgb(0, 0, 0), rgb(255, 255, 255));&quot;&gt;id_empresa (PK)&lt;/span&gt;&lt;br&gt;&lt;span style=&quot;background-color: transparent; color: light-dark(rgb(0, 0, 0), rgb(255, 255, 255));&quot;&gt;nome&lt;/span&gt;&lt;br&gt;&lt;span style=&quot;background-color: transparent; color: light-dark(rgb(0, 0, 0), rgb(255, 255, 255));&quot;&gt;cnpj&lt;/span&gt;&lt;br&gt;&lt;span style=&quot;background-color: transparent; color: light-dark(rgb(0, 0, 0), rgb(255, 255, 255));&quot;&gt;email&lt;/span&gt;&lt;br&gt;&lt;span style=&quot;background-color: transparent; color: light-dark(rgb(0, 0, 0), rgb(255, 255, 255));&quot;&gt;telefone&lt;/span&gt;&lt;br&gt;&lt;span style=&quot;background-color: transparent; color: light-dark(rgb(0, 0, 0), rgb(255, 255, 255));&quot;&gt;endereco&lt;/span&gt;&lt;br&gt;&lt;span style=&quot;background-color: transparent; color: light-dark(rgb(0, 0, 0), rgb(255, 255, 255));&quot;&gt;logo_url&lt;/span&gt;&lt;br&gt;&lt;span style=&quot;background-color: transparent; color: light-dark(rgb(0, 0, 0), rgb(255, 255, 255));&quot;&gt;data_criacao&lt;/span&gt;&lt;/div&gt;&lt;/blockquote&gt;" style="rounded=0;whiteSpace=wrap;html=1;align=left;" vertex="1" parent="1">
          <mxGeometry x="135" y="-675" width="170" height="170" as="geometry" />
        </mxCell>
        <mxCell id="f695u6qmlx_kz472ul5v-4" value="&lt;blockquote style=&quot;margin: 0 0 0 40px; border: none; padding: 0px;&quot;&gt;&lt;div&gt;&lt;b&gt;SALA&lt;/b&gt;&lt;/div&gt;&lt;div&gt;&lt;br&gt;&lt;/div&gt;&lt;div&gt;&lt;span style=&quot;background-color: transparent; color: light-dark(rgb(0, 0, 0), rgb(255, 255, 255));&quot;&gt;id_sala (PK)&lt;/span&gt;&lt;/div&gt;&lt;div&gt;&lt;span style=&quot;color: light-dark(rgb(0, 0, 0), rgb(255, 255, 255)); background-color: transparent;&quot;&gt;id_categoria (FK)&lt;/span&gt;&lt;br&gt;&lt;span style=&quot;color: light-dark(rgb(0, 0, 0), rgb(255, 255, 255)); background-color: transparent;&quot;&gt;id_empresa (FK)&lt;/span&gt;&lt;br&gt;&lt;span style=&quot;background-color: transparent; color: light-dark(rgb(0, 0, 0), rgb(255, 255, 255));&quot;&gt;nome&lt;/span&gt;&lt;br&gt;&lt;span style=&quot;background-color: transparent; color: light-dark(rgb(0, 0, 0), rgb(255, 255, 255));&quot;&gt;descricao&lt;/span&gt;&lt;br&gt;&lt;span style=&quot;background-color: transparent; color: light-dark(rgb(0, 0, 0), rgb(255, 255, 255));&quot;&gt;capacidade&lt;/span&gt;&lt;br&gt;&lt;span style=&quot;background-color: transparent; color: light-dark(rgb(0, 0, 0), rgb(255, 255, 255));&quot;&gt;localizacao&lt;/span&gt;&lt;br&gt;&lt;span style=&quot;background-color: transparent; color: light-dark(rgb(0, 0, 0), rgb(255, 255, 255));&quot;&gt;disponivel (boolean)&lt;/span&gt;&lt;br&gt;&lt;span style=&quot;background-color: transparent; color: light-dark(rgb(0, 0, 0), rgb(255, 255, 255));&quot;&gt;imagem_url&lt;/span&gt;&lt;/div&gt;&lt;/blockquote&gt;" style="rounded=0;whiteSpace=wrap;html=1;align=left;" vertex="1" parent="1">
          <mxGeometry x="330" y="-860" width="170" height="200" as="geometry" />
        </mxCell>
        <mxCell id="f695u6qmlx_kz472ul5v-5" value="&lt;blockquote style=&quot;margin: 0 0 0 40px; border: none; padding: 0px;&quot;&gt;&lt;div&gt;&lt;b&gt;RESERVA&lt;/b&gt;&lt;/div&gt;&lt;div&gt;&lt;br&gt;&lt;/div&gt;&lt;div&gt;&lt;span style=&quot;background-color: transparent; color: light-dark(rgb(0, 0, 0), rgb(255, 255, 255));&quot;&gt;id_reserva (PK)&lt;/span&gt;&lt;br&gt;&lt;span style=&quot;background-color: transparent; color: light-dark(rgb(0, 0, 0), rgb(255, 255, 255));&quot;&gt;id_usuario (FK)&lt;/span&gt;&lt;br&gt;&lt;span style=&quot;background-color: transparent; color: light-dark(rgb(0, 0, 0), rgb(255, 255, 255));&quot;&gt;id_sala (FK)&lt;/span&gt;&lt;br&gt;&lt;span style=&quot;background-color: transparent; color: light-dark(rgb(0, 0, 0), rgb(255, 255, 255));&quot;&gt;data_reserva&lt;/span&gt;&lt;br&gt;&lt;span style=&quot;background-color: transparent; color: light-dark(rgb(0, 0, 0), rgb(255, 255, 255));&quot;&gt;hora_inicio&lt;/span&gt;&lt;br&gt;&lt;span style=&quot;background-color: transparent; color: light-dark(rgb(0, 0, 0), rgb(255, 255, 255));&quot;&gt;hora_fim&lt;/span&gt;&lt;br&gt;&lt;span style=&quot;background-color: transparent; color: light-dark(rgb(0, 0, 0), rgb(255, 255, 255));&quot;&gt;status (pendente, confirmada, cancelada)&lt;/span&gt;&lt;/div&gt;&lt;/blockquote&gt;" style="rounded=0;whiteSpace=wrap;html=1;align=left;" vertex="1" parent="1">
          <mxGeometry x="345" y="-560" width="280" height="200" as="geometry" />
        </mxCell>
        <mxCell id="f695u6qmlx_kz472ul5v-6" value="&lt;blockquote style=&quot;margin: 0 0 0 40px; border: none; padding: 0px;&quot;&gt;&lt;div&gt;&lt;b&gt;CATEGORIA SALA&lt;/b&gt;&lt;/div&gt;&lt;div&gt;&lt;br&gt;&lt;/div&gt;&lt;div&gt;&lt;span style=&quot;background-color: transparent; color: light-dark(rgb(0, 0, 0), rgb(255, 255, 255));&quot;&gt;id_categoria (PK)&lt;/span&gt;&lt;br&gt;&lt;span style=&quot;background-color: transparent; color: light-dark(rgb(0, 0, 0), rgb(255, 255, 255));&quot;&gt;nome&lt;/span&gt;&lt;br&gt;&lt;span style=&quot;background-color: transparent; color: light-dark(rgb(0, 0, 0), rgb(255, 255, 255));&quot;&gt;descricao&lt;/span&gt;&lt;/div&gt;&lt;/blockquote&gt;" style="rounded=0;whiteSpace=wrap;html=1;align=left;" vertex="1" parent="1">
          <mxGeometry x="640" y="-1020" width="170" height="130" as="geometry" />
        </mxCell>
        <mxCell id="f695u6qmlx_kz472ul5v-8" value="&lt;blockquote style=&quot;margin: 0 0 0 40px; border: none; padding: 0px;&quot;&gt;&lt;div&gt;&lt;b&gt;EQUIPAMENTO&lt;/b&gt;&lt;/div&gt;&lt;div&gt;&lt;br&gt;&lt;/div&gt;&lt;div&gt;&lt;span style=&quot;background-color: transparent; color: light-dark(rgb(0, 0, 0), rgb(255, 255, 255));&quot;&gt;id_equipamento (PK)&lt;/span&gt;&lt;/div&gt;&lt;div&gt;id_sala (FK)&lt;br&gt;&lt;span style=&quot;background-color: transparent; color: light-dark(rgb(0, 0, 0), rgb(255, 255, 255));&quot;&gt;nome&lt;/span&gt;&lt;br&gt;&lt;span style=&quot;background-color: transparent; color: light-dark(rgb(0, 0, 0), rgb(255, 255, 255));&quot;&gt;descricao&lt;/span&gt;&lt;br&gt;&lt;span style=&quot;background-color: transparent; color: light-dark(rgb(0, 0, 0), rgb(255, 255, 255));&quot;&gt;status (ativo/inativo)&lt;/span&gt;&lt;/div&gt;&lt;/blockquote&gt;" style="rounded=0;whiteSpace=wrap;html=1;align=left;" vertex="1" parent="1">
          <mxGeometry x="330" y="-1140" width="170" height="130" as="geometry" />
        </mxCell>
        <mxCell id="f695u6qmlx_kz472ul5v-9" value="&lt;blockquote style=&quot;margin: 0 0 0 40px; border: none; padding: 0px;&quot;&gt;&lt;div&gt;&lt;b&gt;CARGO&lt;/b&gt;&lt;/div&gt;&lt;div&gt;&lt;br&gt;&lt;/div&gt;&lt;div&gt;&lt;span style=&quot;background-color: transparent; color: light-dark(rgb(0, 0, 0), rgb(255, 255, 255));&quot;&gt;id_cargo (PK)&lt;/span&gt;&lt;/div&gt;&lt;div&gt;&lt;span style=&quot;background-color: transparent; color: light-dark(rgb(0, 0, 0), rgb(255, 255, 255));&quot;&gt;id_usuario (FK)&lt;/span&gt;&lt;/div&gt;&lt;div&gt;&lt;span style=&quot;background-color: transparent; color: light-dark(rgb(0, 0, 0), rgb(255, 255, 255));&quot;&gt;id_empresa (FK)&lt;/span&gt;&lt;/div&gt;&lt;div&gt;id_permissão (FK)&lt;/div&gt;&lt;/blockquote&gt;" style="rounded=0;whiteSpace=wrap;html=1;align=left;" vertex="1" parent="1">
          <mxGeometry x="20" y="-860" width="170" height="130" as="geometry" />
        </mxCell>
        <mxCell id="f695u6qmlx_kz472ul5v-10" value="&lt;blockquote style=&quot;margin: 0 0 0 40px; border: none; padding: 0px;&quot;&gt;&lt;div&gt;&lt;strong data-start=&quot;2054&quot; data-end=&quot;2067&quot;&gt;PERMISSÃO&lt;/strong&gt;&lt;/div&gt;&lt;div&gt;&lt;br&gt;&lt;/div&gt;&lt;div&gt;&lt;span style=&quot;background-color: transparent; color: light-dark(rgb(0, 0, 0), rgb(255, 255, 255));&quot;&gt;id_permissao (PK)&lt;/span&gt;&lt;br&gt;&lt;span style=&quot;background-color: transparent; color: light-dark(rgb(0, 0, 0), rgb(255, 255, 255));&quot;&gt;nome&lt;/span&gt;&lt;br&gt;&lt;span style=&quot;background-color: transparent; color: light-dark(rgb(0, 0, 0), rgb(255, 255, 255));&quot;&gt;descricao&lt;/span&gt;&lt;/div&gt;&lt;/blockquote&gt;" style="rounded=0;whiteSpace=wrap;html=1;align=left;" vertex="1" parent="1">
          <mxGeometry x="22" y="-1150" width="170" height="130" as="geometry" />
        </mxCell>
        <mxCell id="f695u6qmlx_kz472ul5v-11" value="&lt;blockquote style=&quot;margin: 0 0 0 40px; border: none; padding: 0px;&quot;&gt;&lt;div&gt;&lt;span style=&quot;background-color: transparent; color: light-dark(rgb(0, 0, 0), rgb(255, 255, 255));&quot;&gt;&lt;b&gt;NOTIFICAÇÃO&lt;/b&gt;&lt;/span&gt;&lt;/div&gt;&lt;div&gt;&lt;span style=&quot;background-color: transparent; color: light-dark(rgb(0, 0, 0), rgb(255, 255, 255));&quot;&gt;&lt;br&gt;&lt;/span&gt;&lt;/div&gt;&lt;div&gt;&lt;span style=&quot;background-color: transparent; color: light-dark(rgb(0, 0, 0), rgb(255, 255, 255));&quot;&gt;id_notificacao (PK)&lt;/span&gt;&lt;/div&gt;&lt;div&gt;&lt;span style=&quot;background-color: transparent; color: light-dark(rgb(0, 0, 0), rgb(255, 255, 255));&quot;&gt;id_usuario (FK)&lt;/span&gt;&lt;br&gt;&lt;span style=&quot;background-color: transparent; color: light-dark(rgb(0, 0, 0), rgb(255, 255, 255));&quot;&gt;mensagem&lt;/span&gt;&lt;br&gt;&lt;span style=&quot;background-color: transparent; color: light-dark(rgb(0, 0, 0), rgb(255, 255, 255));&quot;&gt;lida (boolean)&lt;/span&gt;&lt;br&gt;&lt;span style=&quot;background-color: transparent; color: light-dark(rgb(0, 0, 0), rgb(255, 255, 255));&quot;&gt;data_envio&lt;/span&gt;&lt;/div&gt;&lt;/blockquote&gt;" style="rounded=0;whiteSpace=wrap;html=1;align=left;" vertex="1" parent="1">
          <mxGeometry x="10" y="-405" width="170" height="130" as="geometry" />
        </mxCell>
        <mxCell id="f695u6qmlx_kz472ul5v-12" value="&lt;blockquote style=&quot;margin: 0 0 0 40px; border: none; padding: 0px;&quot;&gt;&lt;div&gt;&lt;b&gt;HORÁRIO DISPONÍVEL&lt;/b&gt;&lt;/div&gt;&lt;div&gt;&lt;br&gt;&lt;/div&gt;&lt;div&gt;&lt;span style=&quot;background-color: transparent; color: light-dark(rgb(0, 0, 0), rgb(255, 255, 255));&quot;&gt;i&lt;/span&gt;&lt;span style=&quot;background-color: transparent; color: light-dark(rgb(0, 0, 0), rgb(255, 255, 255));&quot;&gt;d_horario (PK)&lt;/span&gt;&lt;/div&gt;&lt;span style=&quot;color: light-dark(rgb(0, 0, 0), rgb(255, 255, 255)); background-color: transparent;&quot;&gt;id_sala (FK)&lt;/span&gt;&lt;br&gt;&lt;span style=&quot;color: light-dark(rgb(0, 0, 0), rgb(255, 255, 255)); background-color: transparent;&quot;&gt;dia_semana&lt;/span&gt;&lt;br&gt;&lt;span style=&quot;color: light-dark(rgb(0, 0, 0), rgb(255, 255, 255)); background-color: transparent;&quot;&gt;hora_inicio&lt;/span&gt;&lt;br&gt;&lt;span style=&quot;color: light-dark(rgb(0, 0, 0), rgb(255, 255, 255)); background-color: transparent;&quot;&gt;hora_fim&lt;/span&gt;&lt;/blockquote&gt;" style="rounded=0;whiteSpace=wrap;html=1;align=left;" vertex="1" parent="1">
          <mxGeometry x="640" y="-825" width="170" height="123.16" as="geometry" />
        </mxCell>
        <mxCell id="f695u6qmlx_kz472ul5v-13" value="&lt;blockquote style=&quot;margin: 0 0 0 40px; border: none; padding: 0px;&quot;&gt;&lt;b&gt;LOG DE ATIVIDADES&lt;/b&gt;&lt;/blockquote&gt;&lt;blockquote style=&quot;margin: 0 0 0 40px; border: none; padding: 0px;&quot;&gt;&lt;br&gt;&lt;span style=&quot;color: light-dark(rgb(0, 0, 0), rgb(255, 255, 255)); background-color: transparent;&quot;&gt;id_log (PK)&lt;/span&gt;&lt;br&gt;&lt;span style=&quot;color: light-dark(rgb(0, 0, 0), rgb(255, 255, 255)); background-color: transparent;&quot;&gt;id_usuario (FK)&lt;/span&gt;&lt;br&gt;&lt;span style=&quot;color: light-dark(rgb(0, 0, 0), rgb(255, 255, 255)); background-color: transparent;&quot;&gt;acao&lt;/span&gt;&lt;br&gt;&lt;span style=&quot;color: light-dark(rgb(0, 0, 0), rgb(255, 255, 255)); background-color: transparent;&quot;&gt;data_hora&lt;/span&gt;&lt;br&gt;&lt;span style=&quot;color: light-dark(rgb(0, 0, 0), rgb(255, 255, 255)); background-color: transparent;&quot;&gt;detalhes&lt;/span&gt;&lt;/blockquote&gt;" style="rounded=0;whiteSpace=wrap;html=1;align=left;" vertex="1" parent="1">
          <mxGeometry x="660" y="-339" width="150" height="170" as="geometry" />
        </mxCell>
        <mxCell id="f695u6qmlx_kz472ul5v-14" value="" style="rhombus;whiteSpace=wrap;html=1;" vertex="1" parent="1">
          <mxGeometry x="180" y="-490" width="80" height="80" as="geometry" />
        </mxCell>
        <mxCell id="f695u6qmlx_kz472ul5v-15" value="" style="endArrow=none;html=1;rounded=0;entryX=1;entryY=0.5;entryDx=0;entryDy=0;exitX=0.25;exitY=0;exitDx=0;exitDy=0;shape=link;" edge="1" parent="1" source="f695u6qmlx_kz472ul5v-1" target="f695u6qmlx_kz472ul5v-14">
          <mxGeometry width="50" height="50" relative="1" as="geometry">
            <mxPoint x="585" y="-240" as="sourcePoint" />
            <mxPoint x="635" y="-290" as="targetPoint" />
            <Array as="points">
              <mxPoint x="313" y="-450" />
            </Array>
          </mxGeometry>
        </mxCell>
        <mxCell id="f695u6qmlx_kz472ul5v-16" value="" style="endArrow=none;html=1;rounded=0;entryX=0.5;entryY=0;entryDx=0;entryDy=0;exitX=0.5;exitY=1;exitDx=0;exitDy=0;" edge="1" parent="1" source="f695u6qmlx_kz472ul5v-3" target="f695u6qmlx_kz472ul5v-14">
          <mxGeometry width="50" height="50" relative="1" as="geometry">
            <mxPoint x="585" as="sourcePoint" />
            <mxPoint x="635" y="-50" as="targetPoint" />
          </mxGeometry>
        </mxCell>
        <mxCell id="f695u6qmlx_kz472ul5v-17" value="" style="rhombus;whiteSpace=wrap;html=1;" vertex="1" parent="1">
          <mxGeometry x="515" y="-337" width="80" height="80" as="geometry" />
        </mxCell>
        <mxCell id="f695u6qmlx_kz472ul5v-19" value="" style="endArrow=none;html=1;rounded=0;entryX=0;entryY=0.5;entryDx=0;entryDy=0;exitX=0.996;exitY=0.214;exitDx=0;exitDy=0;exitPerimeter=0;" edge="1" parent="1" source="f695u6qmlx_kz472ul5v-1" target="f695u6qmlx_kz472ul5v-17">
          <mxGeometry width="50" height="50" relative="1" as="geometry">
            <mxPoint x="695" y="-485" as="sourcePoint" />
            <mxPoint x="745" y="-535" as="targetPoint" />
          </mxGeometry>
        </mxCell>
        <mxCell id="f695u6qmlx_kz472ul5v-20" value="" style="endArrow=none;html=1;rounded=0;entryX=0.5;entryY=0;entryDx=0;entryDy=0;exitX=0.741;exitY=1;exitDx=0;exitDy=0;shape=link;exitPerimeter=0;" edge="1" parent="1" source="SB9lvJocPj3npPwkDB7g-71" target="f695u6qmlx_kz472ul5v-17">
          <mxGeometry width="50" height="50" relative="1" as="geometry">
            <mxPoint x="440" y="-370" as="sourcePoint" />
            <mxPoint x="630" y="-485" as="targetPoint" />
          </mxGeometry>
        </mxCell>
        <mxCell id="f695u6qmlx_kz472ul5v-21" value="Possuí" style="rhombus;whiteSpace=wrap;html=1;" vertex="1" parent="1">
          <mxGeometry x="55" y="-252" width="80" height="80" as="geometry" />
        </mxCell>
        <mxCell id="f695u6qmlx_kz472ul5v-25" value="Possuí" style="rhombus;whiteSpace=wrap;html=1;" vertex="1" parent="1">
          <mxGeometry x="223" y="-800" width="80" height="80" as="geometry" />
        </mxCell>
        <mxCell id="f695u6qmlx_kz472ul5v-26" value="" style="endArrow=none;html=1;rounded=0;exitX=0.75;exitY=0;exitDx=0;exitDy=0;entryX=0.5;entryY=1;entryDx=0;entryDy=0;" edge="1" parent="1" source="f695u6qmlx_kz472ul5v-3" target="f695u6qmlx_kz472ul5v-25">
          <mxGeometry width="50" height="50" relative="1" as="geometry">
            <mxPoint x="205" y="-700" as="sourcePoint" />
            <mxPoint x="255" y="-750" as="targetPoint" />
          </mxGeometry>
        </mxCell>
        <mxCell id="f695u6qmlx_kz472ul5v-28" value="" style="rhombus;whiteSpace=wrap;html=1;" vertex="1" parent="1">
          <mxGeometry x="520" y="-995" width="80" height="80" as="geometry" />
        </mxCell>
        <mxCell id="f695u6qmlx_kz472ul5v-30" value="" style="endArrow=none;html=1;rounded=0;entryX=1;entryY=0.5;entryDx=0;entryDy=0;exitX=0;exitY=0.5;exitDx=0;exitDy=0;" edge="1" parent="1" source="f695u6qmlx_kz472ul5v-6" target="f695u6qmlx_kz472ul5v-28">
          <mxGeometry width="50" height="50" relative="1" as="geometry">
            <mxPoint x="630" y="-955" as="sourcePoint" />
            <mxPoint x="230" y="-605" as="targetPoint" />
          </mxGeometry>
        </mxCell>
        <mxCell id="f695u6qmlx_kz472ul5v-31" value="" style="endArrow=none;html=1;rounded=0;entryX=1;entryY=0.5;entryDx=0;entryDy=0;exitX=0;exitY=0.5;exitDx=0;exitDy=0;shape=link;" edge="1" parent="1" source="f695u6qmlx_kz472ul5v-4" target="f695u6qmlx_kz472ul5v-25">
          <mxGeometry width="50" height="50" relative="1" as="geometry">
            <mxPoint x="180" y="-615" as="sourcePoint" />
            <mxPoint x="230" y="-665" as="targetPoint" />
          </mxGeometry>
        </mxCell>
        <mxCell id="f695u6qmlx_kz472ul5v-32" value="" style="rhombus;whiteSpace=wrap;html=1;" vertex="1" parent="1">
          <mxGeometry x="375" y="-970" width="80" height="80" as="geometry" />
        </mxCell>
        <mxCell id="f695u6qmlx_kz472ul5v-33" value="" style="endArrow=none;html=1;rounded=0;entryX=0.5;entryY=1;entryDx=0;entryDy=0;exitX=0.5;exitY=0;exitDx=0;exitDy=0;" edge="1" parent="1" source="f695u6qmlx_kz472ul5v-4" target="f695u6qmlx_kz472ul5v-32">
          <mxGeometry width="50" height="50" relative="1" as="geometry">
            <mxPoint x="180" y="-700" as="sourcePoint" />
            <mxPoint x="230" y="-750" as="targetPoint" />
          </mxGeometry>
        </mxCell>
        <mxCell id="f695u6qmlx_kz472ul5v-34" value="" style="endArrow=none;html=1;rounded=0;entryX=0.5;entryY=0;entryDx=0;entryDy=0;exitX=0.5;exitY=1;exitDx=0;exitDy=0;shape=link;" edge="1" parent="1" source="f695u6qmlx_kz472ul5v-42" target="f695u6qmlx_kz472ul5v-32">
          <mxGeometry width="50" height="50" relative="1" as="geometry">
            <mxPoint x="180" y="-700" as="sourcePoint" />
            <mxPoint x="230" y="-750" as="targetPoint" />
          </mxGeometry>
        </mxCell>
        <mxCell id="f695u6qmlx_kz472ul5v-37" value="" style="endArrow=none;html=1;rounded=0;entryX=0.5;entryY=1;entryDx=0;entryDy=0;exitX=0.5;exitY=0;exitDx=0;exitDy=0;" edge="1" parent="1" source="SB9lvJocPj3npPwkDB7g-34" target="f695u6qmlx_kz472ul5v-4">
          <mxGeometry width="50" height="50" relative="1" as="geometry">
            <mxPoint x="415" y="-560" as="sourcePoint" />
            <mxPoint x="250" y="-550" as="targetPoint" />
          </mxGeometry>
        </mxCell>
        <mxCell id="f695u6qmlx_kz472ul5v-38" value="" style="endArrow=none;html=1;rounded=0;entryX=1;entryY=0.5;entryDx=0;entryDy=0;exitX=-0.002;exitY=0.641;exitDx=0;exitDy=0;exitPerimeter=0;" edge="1" parent="1" source="f695u6qmlx_kz472ul5v-1" target="f695u6qmlx_kz472ul5v-21">
          <mxGeometry width="50" height="50" relative="1" as="geometry">
            <mxPoint x="305" y="-400" as="sourcePoint" />
            <mxPoint x="355" y="-450" as="targetPoint" />
          </mxGeometry>
        </mxCell>
        <mxCell id="f695u6qmlx_kz472ul5v-39" value="" style="endArrow=none;html=1;rounded=0;entryX=0.5;entryY=1;entryDx=0;entryDy=0;exitX=0.5;exitY=0;exitDx=0;exitDy=0;shape=link;" edge="1" parent="1" source="f695u6qmlx_kz472ul5v-21" target="SB9lvJocPj3npPwkDB7g-51">
          <mxGeometry width="50" height="50" relative="1" as="geometry">
            <mxPoint x="100" y="-150" as="sourcePoint" />
            <mxPoint x="150" y="-200" as="targetPoint" />
          </mxGeometry>
        </mxCell>
        <mxCell id="SB9lvJocPj3npPwkDB7g-1" value="Possuí" style="rhombus;whiteSpace=wrap;html=1;" vertex="1" parent="1">
          <mxGeometry x="52" y="-701.84" width="80" height="80" as="geometry" />
        </mxCell>
        <mxCell id="SB9lvJocPj3npPwkDB7g-2" value="" style="endArrow=none;html=1;rounded=0;entryX=0.424;entryY=1.005;entryDx=0;entryDy=0;exitX=0.5;exitY=0;exitDx=0;exitDy=0;shape=link;entryPerimeter=0;" edge="1" parent="1" source="SB9lvJocPj3npPwkDB7g-1" target="f695u6qmlx_kz472ul5v-9">
          <mxGeometry width="50" height="50" relative="1" as="geometry">
            <mxPoint x="390" y="-720" as="sourcePoint" />
            <mxPoint x="440" y="-770" as="targetPoint" />
          </mxGeometry>
        </mxCell>
        <mxCell id="SB9lvJocPj3npPwkDB7g-3" value="" style="endArrow=none;html=1;rounded=0;entryX=0.5;entryY=1;entryDx=0;entryDy=0;exitX=0;exitY=0.5;exitDx=0;exitDy=0;" edge="1" parent="1" source="f695u6qmlx_kz472ul5v-3" target="SB9lvJocPj3npPwkDB7g-1">
          <mxGeometry width="50" height="50" relative="1" as="geometry">
            <mxPoint x="130" y="-590" as="sourcePoint" />
            <mxPoint x="87" y="-621.84" as="targetPoint" />
            <Array as="points">
              <mxPoint x="92" y="-590" />
            </Array>
          </mxGeometry>
        </mxCell>
        <mxCell id="SB9lvJocPj3npPwkDB7g-6" value="" style="rhombus;whiteSpace=wrap;html=1;" vertex="1" parent="1">
          <mxGeometry x="65" y="-980" width="80" height="80" as="geometry" />
        </mxCell>
        <mxCell id="SB9lvJocPj3npPwkDB7g-7" value="" style="endArrow=none;html=1;rounded=0;entryX=0.5;entryY=1;entryDx=0;entryDy=0;exitX=0.5;exitY=0;exitDx=0;exitDy=0;shape=link;" edge="1" parent="1" source="f695u6qmlx_kz472ul5v-9" target="SB9lvJocPj3npPwkDB7g-6">
          <mxGeometry width="50" height="50" relative="1" as="geometry">
            <mxPoint x="260" y="-860" as="sourcePoint" />
            <mxPoint x="310" y="-910" as="targetPoint" />
          </mxGeometry>
        </mxCell>
        <mxCell id="SB9lvJocPj3npPwkDB7g-8" value="" style="endArrow=none;html=1;rounded=0;entryX=0.5;entryY=0;entryDx=0;entryDy=0;exitX=0.5;exitY=1;exitDx=0;exitDy=0;shape=link;" edge="1" parent="1" source="SB9lvJocPj3npPwkDB7g-5" target="SB9lvJocPj3npPwkDB7g-6">
          <mxGeometry width="50" height="50" relative="1" as="geometry">
            <mxPoint x="260" y="-860" as="sourcePoint" />
            <mxPoint x="310" y="-910" as="targetPoint" />
          </mxGeometry>
        </mxCell>
        <mxCell id="SB9lvJocPj3npPwkDB7g-10" value="" style="rhombus;whiteSpace=wrap;html=1;" vertex="1" parent="1">
          <mxGeometry x="520" y="-800" width="80" height="80" as="geometry" />
        </mxCell>
        <mxCell id="SB9lvJocPj3npPwkDB7g-11" value="" style="endArrow=none;html=1;rounded=0;entryX=1;entryY=0.5;entryDx=0;entryDy=0;exitX=0;exitY=0.5;exitDx=0;exitDy=0;shape=link;" edge="1" parent="1" source="SB9lvJocPj3npPwkDB7g-9" target="SB9lvJocPj3npPwkDB7g-10">
          <mxGeometry width="50" height="50" relative="1" as="geometry">
            <mxPoint x="170" y="-830" as="sourcePoint" />
            <mxPoint x="220" y="-880" as="targetPoint" />
          </mxGeometry>
        </mxCell>
        <mxCell id="SB9lvJocPj3npPwkDB7g-12" value="" style="endArrow=none;html=1;rounded=0;entryX=0;entryY=0.5;entryDx=0;entryDy=0;exitX=1;exitY=0.5;exitDx=0;exitDy=0;" edge="1" parent="1" source="f695u6qmlx_kz472ul5v-4" target="SB9lvJocPj3npPwkDB7g-10">
          <mxGeometry width="50" height="50" relative="1" as="geometry">
            <mxPoint x="170" y="-830" as="sourcePoint" />
            <mxPoint x="220" y="-880" as="targetPoint" />
          </mxGeometry>
        </mxCell>
        <mxCell id="SB9lvJocPj3npPwkDB7g-13" value="" style="endArrow=none;html=1;rounded=0;entryX=1;entryY=0;entryDx=0;entryDy=0;exitX=0;exitY=1;exitDx=0;exitDy=0;shape=link;" edge="1" parent="1" source="f695u6qmlx_kz472ul5v-28" target="f695u6qmlx_kz472ul5v-4">
          <mxGeometry width="50" height="50" relative="1" as="geometry">
            <mxPoint x="190" y="-830" as="sourcePoint" />
            <mxPoint x="240" y="-880" as="targetPoint" />
          </mxGeometry>
        </mxCell>
        <mxCell id="SB9lvJocPj3npPwkDB7g-14" value="" style="rhombus;whiteSpace=wrap;html=1;fontFamily=Helvetica;fontSize=11;fontColor=default;labelBackgroundColor=default;" vertex="1" parent="1">
          <mxGeometry x="515" y="-252" width="80" height="80" as="geometry" />
        </mxCell>
        <mxCell id="SB9lvJocPj3npPwkDB7g-15" value="" style="endArrow=none;html=1;rounded=0;strokeColor=default;align=center;verticalAlign=middle;fontFamily=Helvetica;fontSize=11;fontColor=default;labelBackgroundColor=default;entryX=0;entryY=0.5;entryDx=0;entryDy=0;exitX=0.993;exitY=0.641;exitDx=0;exitDy=0;exitPerimeter=0;" edge="1" parent="1" source="f695u6qmlx_kz472ul5v-1" target="SB9lvJocPj3npPwkDB7g-14">
          <mxGeometry width="50" height="50" relative="1" as="geometry">
            <mxPoint x="190" y="-190" as="sourcePoint" />
            <mxPoint x="240" y="-240" as="targetPoint" />
          </mxGeometry>
        </mxCell>
        <mxCell id="SB9lvJocPj3npPwkDB7g-16" value="" style="endArrow=none;html=1;rounded=0;strokeColor=default;align=center;verticalAlign=middle;fontFamily=Helvetica;fontSize=11;fontColor=default;labelBackgroundColor=default;entryX=1;entryY=0.5;entryDx=0;entryDy=0;shape=link;exitX=-0.004;exitY=0.737;exitDx=0;exitDy=0;exitPerimeter=0;" edge="1" parent="1" source="SB9lvJocPj3npPwkDB7g-72" target="SB9lvJocPj3npPwkDB7g-14">
          <mxGeometry width="50" height="50" relative="1" as="geometry">
            <mxPoint x="650" y="-210" as="sourcePoint" />
            <mxPoint x="240" y="-240" as="targetPoint" />
          </mxGeometry>
        </mxCell>
        <mxCell id="SB9lvJocPj3npPwkDB7g-34" value="" style="rhombus;whiteSpace=wrap;html=1;" vertex="1" parent="1">
          <mxGeometry x="375" y="-655" width="80" height="80" as="geometry" />
        </mxCell>
        <mxCell id="SB9lvJocPj3npPwkDB7g-35" value="" style="endArrow=none;html=1;rounded=0;strokeColor=default;align=center;verticalAlign=middle;fontFamily=Helvetica;fontSize=11;fontColor=default;labelBackgroundColor=default;entryX=0.5;entryY=1;entryDx=0;entryDy=0;exitX=0.259;exitY=0.002;exitDx=0;exitDy=0;shape=link;exitPerimeter=0;" edge="1" parent="1" source="SB9lvJocPj3npPwkDB7g-71" target="SB9lvJocPj3npPwkDB7g-34">
          <mxGeometry width="50" height="50" relative="1" as="geometry">
            <mxPoint x="310" y="-510" as="sourcePoint" />
            <mxPoint x="360" y="-560" as="targetPoint" />
          </mxGeometry>
        </mxCell>
        <mxCell id="SB9lvJocPj3npPwkDB7g-38" style="edgeStyle=none;shape=connector;rounded=0;orthogonalLoop=1;jettySize=auto;html=1;entryX=1;entryY=0.5;entryDx=0;entryDy=0;strokeColor=default;align=center;verticalAlign=middle;fontFamily=Helvetica;fontSize=11;fontColor=default;labelBackgroundColor=default;endArrow=none;" edge="1" parent="1">
          <mxGeometry relative="1" as="geometry">
            <mxPoint x="305" y="-361" as="sourcePoint" />
            <mxPoint x="305" y="-361" as="targetPoint" />
          </mxGeometry>
        </mxCell>
        <mxCell id="SB9lvJocPj3npPwkDB7g-41" value="&lt;span style=&quot;text-align: left;&quot;&gt;( N ,1 )&lt;/span&gt;" style="text;strokeColor=none;align=center;fillColor=none;html=1;verticalAlign=middle;whiteSpace=wrap;rounded=0;fontFamily=Helvetica;fontSize=11;fontColor=default;labelBackgroundColor=none;" vertex="1" parent="1">
          <mxGeometry x="285" y="-480" width="60" height="30" as="geometry" />
        </mxCell>
        <mxCell id="SB9lvJocPj3npPwkDB7g-42" value="&lt;span style=&quot;text-align: left;&quot;&gt;( 1 ,N )&lt;/span&gt;" style="text;strokeColor=none;align=center;fillColor=none;html=1;verticalAlign=middle;whiteSpace=wrap;rounded=0;fontFamily=Helvetica;fontSize=11;fontColor=default;labelBackgroundColor=none;" vertex="1" parent="1">
          <mxGeometry x="450" y="-327" width="60" height="30" as="geometry" />
        </mxCell>
        <mxCell id="SB9lvJocPj3npPwkDB7g-43" value="&lt;span style=&quot;text-align: left;&quot;&gt;( 1 ,N )&lt;/span&gt;" style="text;strokeColor=none;align=center;fillColor=none;html=1;verticalAlign=middle;whiteSpace=wrap;rounded=0;fontFamily=Helvetica;fontSize=11;fontColor=default;labelBackgroundColor=none;" vertex="1" parent="1">
          <mxGeometry x="450" y="-243" width="60" height="30" as="geometry" />
        </mxCell>
        <mxCell id="SB9lvJocPj3npPwkDB7g-44" value="&lt;span style=&quot;text-align: left;&quot;&gt;( 1 ,N )&lt;/span&gt;" style="text;strokeColor=none;align=center;fillColor=none;html=1;verticalAlign=middle;whiteSpace=wrap;rounded=0;fontFamily=Helvetica;fontSize=11;fontColor=default;labelBackgroundColor=none;" vertex="1" parent="1">
          <mxGeometry x="170" y="-243" width="60" height="30" as="geometry" />
        </mxCell>
        <mxCell id="SB9lvJocPj3npPwkDB7g-45" value="" style="rhombus;whiteSpace=wrap;html=1;" vertex="1" parent="1">
          <mxGeometry x="8" y="-540" width="80" height="80" as="geometry" />
        </mxCell>
        <mxCell id="SB9lvJocPj3npPwkDB7g-46" value="" style="endArrow=none;html=1;rounded=0;strokeColor=default;align=center;verticalAlign=middle;fontFamily=Helvetica;fontSize=11;fontColor=default;labelBackgroundColor=default;entryX=0;entryY=0;entryDx=0;entryDy=0;exitX=0.5;exitY=1;exitDx=0;exitDy=0;shape=link;" edge="1" parent="1" source="SB9lvJocPj3npPwkDB7g-45" target="f695u6qmlx_kz472ul5v-1">
          <mxGeometry width="50" height="50" relative="1" as="geometry">
            <mxPoint x="280" y="-460" as="sourcePoint" />
            <mxPoint x="330" y="-510" as="targetPoint" />
            <Array as="points">
              <mxPoint x="48" y="-430" />
              <mxPoint x="190" y="-430" />
            </Array>
          </mxGeometry>
        </mxCell>
        <mxCell id="SB9lvJocPj3npPwkDB7g-48" style="edgeStyle=none;shape=connector;rounded=0;orthogonalLoop=1;jettySize=auto;html=1;entryX=0;entryY=0.5;entryDx=0;entryDy=0;strokeColor=default;align=center;verticalAlign=middle;fontFamily=Helvetica;fontSize=11;fontColor=default;labelBackgroundColor=default;endArrow=none;" edge="1" parent="1" source="f695u6qmlx_kz472ul5v-3" target="f695u6qmlx_kz472ul5v-3">
          <mxGeometry relative="1" as="geometry" />
        </mxCell>
        <mxCell id="SB9lvJocPj3npPwkDB7g-49" value="&lt;span style=&quot;text-align: left;&quot;&gt;( 1, 1 )&lt;/span&gt;" style="text;strokeColor=none;align=center;fillColor=none;html=1;verticalAlign=middle;whiteSpace=wrap;rounded=0;fontFamily=Helvetica;fontSize=11;fontColor=default;labelBackgroundColor=none;" vertex="1" parent="1">
          <mxGeometry x="100" y="-460" width="60" height="30" as="geometry" />
        </mxCell>
        <mxCell id="SB9lvJocPj3npPwkDB7g-52" value="&lt;span style=&quot;text-align: left;&quot;&gt;( 1 ,N )&lt;/span&gt;" style="text;strokeColor=none;align=center;fillColor=none;html=1;verticalAlign=middle;whiteSpace=wrap;rounded=0;fontFamily=Helvetica;fontSize=11;fontColor=default;labelBackgroundColor=none;" vertex="1" parent="1">
          <mxGeometry x="223" y="-505" width="60" height="30" as="geometry" />
        </mxCell>
        <mxCell id="SB9lvJocPj3npPwkDB7g-53" value="&lt;span style=&quot;text-align: left;&quot;&gt;( 1 ,N )&lt;/span&gt;" style="text;strokeColor=none;align=center;fillColor=none;html=1;verticalAlign=middle;whiteSpace=wrap;rounded=0;fontFamily=Helvetica;fontSize=11;fontColor=default;labelBackgroundColor=none;" vertex="1" parent="1">
          <mxGeometry x="260" y="-715" width="60" height="30" as="geometry" />
        </mxCell>
        <mxCell id="SB9lvJocPj3npPwkDB7g-54" value="&lt;span style=&quot;text-align: left;&quot;&gt;( 1 ,N )&lt;/span&gt;" style="text;strokeColor=none;align=center;fillColor=none;html=1;verticalAlign=middle;whiteSpace=wrap;rounded=0;fontFamily=Helvetica;fontSize=11;fontColor=default;labelBackgroundColor=none;" vertex="1" parent="1">
          <mxGeometry x="84" y="-622" width="60" height="30" as="geometry" />
        </mxCell>
        <mxCell id="SB9lvJocPj3npPwkDB7g-55" value="&lt;span style=&quot;text-align: left;&quot;&gt;( N ,1 )&lt;/span&gt;" style="text;strokeColor=none;align=center;fillColor=none;html=1;verticalAlign=middle;whiteSpace=wrap;rounded=0;fontFamily=Helvetica;fontSize=11;fontColor=default;labelBackgroundColor=none;" vertex="1" parent="1">
          <mxGeometry x="270" y="-810" width="60" height="30" as="geometry" />
        </mxCell>
        <mxCell id="SB9lvJocPj3npPwkDB7g-56" value="&lt;span style=&quot;text-align: left;&quot;&gt;( N ,1 )&lt;/span&gt;" style="text;strokeColor=none;align=center;fillColor=none;html=1;verticalAlign=middle;whiteSpace=wrap;rounded=0;fontFamily=Helvetica;fontSize=11;fontColor=default;labelBackgroundColor=none;" vertex="1" parent="1">
          <mxGeometry x="525" y="-900" width="60" height="30" as="geometry" />
        </mxCell>
        <mxCell id="SB9lvJocPj3npPwkDB7g-57" value="&lt;span style=&quot;text-align: left;&quot;&gt;( 1 ,N )&lt;/span&gt;" style="text;strokeColor=none;align=center;fillColor=none;html=1;verticalAlign=middle;whiteSpace=wrap;rounded=0;fontFamily=Helvetica;fontSize=11;fontColor=default;labelBackgroundColor=none;" vertex="1" parent="1">
          <mxGeometry x="414" y="-890" width="60" height="30" as="geometry" />
        </mxCell>
        <mxCell id="SB9lvJocPj3npPwkDB7g-58" value="&lt;span style=&quot;text-align: left;&quot;&gt;( 1 ,N )&lt;/span&gt;" style="text;strokeColor=none;align=center;fillColor=none;html=1;verticalAlign=middle;whiteSpace=wrap;rounded=0;fontFamily=Helvetica;fontSize=11;fontColor=default;labelBackgroundColor=none;" vertex="1" parent="1">
          <mxGeometry x="493" y="-810" width="60" height="30" as="geometry" />
        </mxCell>
        <mxCell id="SB9lvJocPj3npPwkDB7g-59" value="&lt;span style=&quot;text-align: left;&quot;&gt;( 1 ,N )&lt;/span&gt;" style="text;strokeColor=none;align=center;fillColor=none;html=1;verticalAlign=middle;whiteSpace=wrap;rounded=0;fontFamily=Helvetica;fontSize=11;fontColor=default;labelBackgroundColor=none;" vertex="1" parent="1">
          <mxGeometry x="430" y="-660" width="60" height="30" as="geometry" />
        </mxCell>
        <mxCell id="SB9lvJocPj3npPwkDB7g-60" value="&lt;span style=&quot;text-align: left;&quot;&gt;( N ,1 )&lt;/span&gt;" style="text;strokeColor=none;align=center;fillColor=none;html=1;verticalAlign=middle;whiteSpace=wrap;rounded=0;fontFamily=Helvetica;fontSize=11;fontColor=default;labelBackgroundColor=none;" vertex="1" parent="1">
          <mxGeometry x="560" y="-360" width="60" height="30" as="geometry" />
        </mxCell>
        <mxCell id="SB9lvJocPj3npPwkDB7g-61" value="&lt;span style=&quot;text-align: left;&quot;&gt;( N ,1 )&lt;/span&gt;" style="text;strokeColor=none;align=center;fillColor=none;html=1;verticalAlign=middle;whiteSpace=wrap;rounded=0;fontFamily=Helvetica;fontSize=11;fontColor=default;labelBackgroundColor=none;" vertex="1" parent="1">
          <mxGeometry x="430" y="-592" width="60" height="30" as="geometry" />
        </mxCell>
        <mxCell id="SB9lvJocPj3npPwkDB7g-62" value="&lt;span style=&quot;text-align: left;&quot;&gt;( 1 ,N )&lt;/span&gt;" style="text;strokeColor=none;align=center;fillColor=none;html=1;verticalAlign=middle;whiteSpace=wrap;rounded=0;fontFamily=Helvetica;fontSize=11;fontColor=default;labelBackgroundColor=none;" vertex="1" parent="1">
          <mxGeometry x="570" y="-1000" width="60" height="30" as="geometry" />
        </mxCell>
        <mxCell id="SB9lvJocPj3npPwkDB7g-63" value="&lt;span style=&quot;text-align: left;&quot;&gt;( N ,1 )&lt;/span&gt;" style="text;strokeColor=none;align=center;fillColor=none;html=1;verticalAlign=middle;whiteSpace=wrap;rounded=0;fontFamily=Helvetica;fontSize=11;fontColor=default;labelBackgroundColor=none;" vertex="1" parent="1">
          <mxGeometry x="414" y="-1000" width="60" height="30" as="geometry" />
        </mxCell>
        <mxCell id="SB9lvJocPj3npPwkDB7g-64" value="&lt;span style=&quot;text-align: left;&quot;&gt;( N , 1 )&lt;/span&gt;" style="text;strokeColor=none;align=center;fillColor=none;html=1;verticalAlign=middle;whiteSpace=wrap;rounded=0;fontFamily=Helvetica;fontSize=11;fontColor=default;labelBackgroundColor=none;" vertex="1" parent="1">
          <mxGeometry y="-680" width="52" height="30" as="geometry" />
        </mxCell>
        <mxCell id="SB9lvJocPj3npPwkDB7g-65" value="&lt;span style=&quot;text-align: left;&quot;&gt;( N ,1 )&lt;/span&gt;" style="text;strokeColor=none;align=center;fillColor=none;html=1;verticalAlign=middle;whiteSpace=wrap;rounded=0;fontFamily=Helvetica;fontSize=11;fontColor=default;labelBackgroundColor=none;" vertex="1" parent="1">
          <mxGeometry x="88" y="-730" width="60" height="30" as="geometry" />
        </mxCell>
        <mxCell id="SB9lvJocPj3npPwkDB7g-66" value="&lt;span style=&quot;text-align: left;&quot;&gt;( N, N )&lt;/span&gt;" style="text;strokeColor=none;align=center;fillColor=none;html=1;verticalAlign=middle;whiteSpace=wrap;rounded=0;fontFamily=Helvetica;fontSize=11;fontColor=default;labelBackgroundColor=none;" vertex="1" parent="1">
          <mxGeometry x="100" y="-900" width="60" height="30" as="geometry" />
        </mxCell>
        <mxCell id="SB9lvJocPj3npPwkDB7g-67" value="&lt;span style=&quot;text-align: left;&quot;&gt;( N, N )&lt;/span&gt;" style="text;strokeColor=none;align=center;fillColor=none;html=1;verticalAlign=middle;whiteSpace=wrap;rounded=0;fontFamily=Helvetica;fontSize=11;fontColor=default;labelBackgroundColor=none;" vertex="1" parent="1">
          <mxGeometry x="100" y="-1000" width="60" height="30" as="geometry" />
        </mxCell>
        <mxCell id="SB9lvJocPj3npPwkDB7g-68" value="&lt;span style=&quot;text-align: left;&quot;&gt;( N ,1 )&lt;/span&gt;" style="text;strokeColor=none;align=center;fillColor=none;html=1;verticalAlign=middle;whiteSpace=wrap;rounded=0;fontFamily=Helvetica;fontSize=11;fontColor=default;labelBackgroundColor=none;" vertex="1" parent="1">
          <mxGeometry x="24" y="-265" width="60" height="30" as="geometry" />
        </mxCell>
        <mxCell id="SB9lvJocPj3npPwkDB7g-69" value="&lt;span style=&quot;text-align: left;&quot;&gt;( N ,1 )&lt;/span&gt;" style="text;strokeColor=none;align=center;fillColor=none;html=1;verticalAlign=middle;whiteSpace=wrap;rounded=0;fontFamily=Helvetica;fontSize=11;fontColor=default;labelBackgroundColor=none;" vertex="1" parent="1">
          <mxGeometry x="570" y="-810" width="60" height="30" as="geometry" />
        </mxCell>
        <mxCell id="SB9lvJocPj3npPwkDB7g-70" value="&lt;span style=&quot;text-align: left;&quot;&gt;( N ,1 )&lt;/span&gt;" style="text;strokeColor=none;align=center;fillColor=none;html=1;verticalAlign=middle;whiteSpace=wrap;rounded=0;fontFamily=Helvetica;fontSize=11;fontColor=default;labelBackgroundColor=none;" vertex="1" parent="1">
          <mxGeometry x="580" y="-243" width="60" height="30" as="geometry" />
        </mxCell>
        <mxCell id="SB9lvJocPj3npPwkDB7g-73" value="&lt;span style=&quot;text-align: left;&quot;&gt;Possuí&lt;/span&gt;" style="text;strokeColor=none;align=center;fillColor=none;html=1;verticalAlign=middle;whiteSpace=wrap;rounded=0;fontFamily=Helvetica;fontSize=11;fontColor=default;labelBackgroundColor=none;" vertex="1" parent="1">
          <mxGeometry x="75" y="-955" width="60" height="30" as="geometry" />
        </mxCell>
        <mxCell id="SB9lvJocPj3npPwkDB7g-75" value="&lt;div style=&quot;text-align: left;&quot;&gt;&lt;span style=&quot;background-color: transparent; color: light-dark(rgb(0, 0, 0), rgb(255, 255, 255));&quot;&gt;Possuí&lt;/span&gt;&lt;/div&gt;" style="text;strokeColor=none;align=center;fillColor=none;html=1;verticalAlign=middle;whiteSpace=wrap;rounded=0;fontFamily=Helvetica;fontSize=11;fontColor=default;labelBackgroundColor=none;" vertex="1" parent="1">
          <mxGeometry x="385" y="-945" width="60" height="30" as="geometry" />
        </mxCell>
        <mxCell id="SB9lvJocPj3npPwkDB7g-76" value="&lt;div style=&quot;text-align: left;&quot;&gt;&lt;span style=&quot;background-color: transparent; color: light-dark(rgb(0, 0, 0), rgb(255, 255, 255));&quot;&gt;Pertence&lt;/span&gt;&lt;/div&gt;" style="text;strokeColor=none;align=center;fillColor=none;html=1;verticalAlign=middle;whiteSpace=wrap;rounded=0;fontFamily=Helvetica;fontSize=11;fontColor=default;labelBackgroundColor=none;" vertex="1" parent="1">
          <mxGeometry x="530" y="-970" width="60" height="30" as="geometry" />
        </mxCell>
        <mxCell id="SB9lvJocPj3npPwkDB7g-77" value="&lt;span style=&quot;text-align: left;&quot;&gt;Têm&lt;/span&gt;" style="text;strokeColor=none;align=center;fillColor=none;html=1;verticalAlign=middle;whiteSpace=wrap;rounded=0;fontFamily=Helvetica;fontSize=11;fontColor=default;labelBackgroundColor=none;" vertex="1" parent="1">
          <mxGeometry x="530" y="-775" width="60" height="30" as="geometry" />
        </mxCell>
        <mxCell id="SB9lvJocPj3npPwkDB7g-78" value="&lt;span style=&quot;text-align: left;&quot;&gt;Faz&lt;/span&gt;" style="text;strokeColor=none;align=center;fillColor=none;html=1;verticalAlign=middle;whiteSpace=wrap;rounded=0;fontFamily=Helvetica;fontSize=11;fontColor=default;labelBackgroundColor=none;" vertex="1" parent="1">
          <mxGeometry x="525" y="-312" width="60" height="30" as="geometry" />
        </mxCell>
        <mxCell id="SB9lvJocPj3npPwkDB7g-79" value="&lt;span style=&quot;text-align: left;&quot;&gt;Está&lt;/span&gt;" style="text;strokeColor=none;align=center;fillColor=none;html=1;verticalAlign=middle;whiteSpace=wrap;rounded=0;fontFamily=Helvetica;fontSize=11;fontColor=default;labelBackgroundColor=none;" vertex="1" parent="1">
          <mxGeometry x="384" y="-630" width="60" height="30" as="geometry" />
        </mxCell>
        <mxCell id="SB9lvJocPj3npPwkDB7g-80" value="&lt;span style=&quot;text-align: left;&quot;&gt;Possuí&lt;/span&gt;" style="text;strokeColor=none;align=center;fillColor=none;html=1;verticalAlign=middle;whiteSpace=wrap;rounded=0;fontFamily=Helvetica;fontSize=11;fontColor=default;labelBackgroundColor=none;" vertex="1" parent="1">
          <mxGeometry x="525" y="-227" width="60" height="30" as="geometry" />
        </mxCell>
        <mxCell id="SB9lvJocPj3npPwkDB7g-81" value="&lt;span style=&quot;text-align: left;&quot;&gt;Têm&lt;/span&gt;" style="text;strokeColor=none;align=center;fillColor=none;html=1;verticalAlign=middle;whiteSpace=wrap;rounded=0;fontFamily=Helvetica;fontSize=11;fontColor=default;labelBackgroundColor=none;" vertex="1" parent="1">
          <mxGeometry x="190" y="-465" width="60" height="30" as="geometry" />
        </mxCell>
        <mxCell id="SB9lvJocPj3npPwkDB7g-82" value="&lt;span style=&quot;text-align: left;&quot;&gt;Possuí&lt;/span&gt;" style="text;strokeColor=none;align=center;fillColor=none;html=1;verticalAlign=middle;whiteSpace=wrap;rounded=0;fontFamily=Helvetica;fontSize=11;fontColor=default;labelBackgroundColor=none;" vertex="1" parent="1">
          <mxGeometry x="18" y="-515" width="60" height="30" as="geometry" />
        </mxCell>
      </root>
    </mxGraphModel>
  </diagram>
</mxfile>
